<?xml version="1.0" encoding="UTF-8"?>
<svg xmlns="http://www.w3.org/2000/svg" xmlns:xlink="http://www.w3.org/1999/xlink" width="11px" height="11px" viewBox="0 0 11 11" version="1.1">
<g id="surface1">
<path style=" stroke:none;fill-rule:nonzero;fill:rgb(81.568627%,86.666667%,83.529412%);fill-opacity:1;" d="M 10.835938 5.5 C 10.835938 8.445312 8.445312 10.835938 5.5 10.835938 C 2.554688 10.835938 0.164062 8.445312 0.164062 5.5 C 0.164062 2.554688 2.554688 0.164062 5.5 0.164062 C 8.445312 0.164062 10.835938 2.554688 10.835938 5.5 Z M 10.835938 5.5 "/>
<path style=" stroke:none;fill-rule:nonzero;fill:rgb(96.470588%,20.392157%,33.333333%);fill-opacity:1;" d="M 5.066406 7.019531 L 4.371094 7.019531 L 3.675781 4.875 L 5.5 3.546875 L 7.328125 4.875 L 6.628906 7.019531 L 5.5 7.019531 "/>
<path style=" stroke:none;fill-rule:nonzero;fill:rgb(96.470588%,20.392157%,33.333333%);fill-opacity:1;" d="M 10.574219 3.851562 C 10.375 3.242188 10.078125 2.691406 9.707031 2.214844 L 9.007812 4.359375 L 10.832031 5.6875 C 10.855469 5.082031 10.773438 4.460938 10.574219 3.851562 Z M 10.574219 3.851562 "/>
<path style=" stroke:none;fill-rule:nonzero;fill:rgb(96.470588%,20.392157%,33.333333%);fill-opacity:1;" d="M 5.5 0.164062 C 4.859375 0.164062 4.246094 0.277344 3.675781 0.484375 L 5.5 1.8125 L 7.324219 0.484375 C 6.757812 0.277344 6.140625 0.164062 5.5 0.164062 Z M 5.5 0.164062 "/>
<path style=" stroke:none;fill-rule:nonzero;fill:rgb(96.470588%,20.392157%,33.333333%);fill-opacity:1;" d="M 0.425781 3.851562 C 0.226562 4.460938 0.144531 5.082031 0.167969 5.6875 L 1.992188 4.359375 L 1.292969 2.214844 C 0.921875 2.691406 0.625 3.242188 0.425781 3.851562 Z M 0.425781 3.851562 "/>
<path style=" stroke:none;fill-rule:nonzero;fill:rgb(96.470588%,20.392157%,33.333333%);fill-opacity:1;" d="M 2.363281 9.816406 C 2.882812 10.195312 3.445312 10.464844 4.03125 10.628906 L 3.332031 8.480469 L 1.074219 8.484375 C 1.414062 8.988281 1.84375 9.441406 2.363281 9.816406 Z M 2.363281 9.816406 "/>
<path style=" stroke:none;fill-rule:nonzero;fill:rgb(96.470588%,20.392157%,33.333333%);fill-opacity:1;" d="M 8.636719 9.816406 C 9.15625 9.441406 9.585938 8.988281 9.925781 8.484375 L 7.667969 8.480469 L 6.972656 10.628906 C 7.554688 10.464844 8.117188 10.191406 8.636719 9.816406 Z M 8.636719 9.816406 "/>
<path style=" stroke:none;fill-rule:nonzero;fill:rgb(8.235294%,21.176471%,31.764706%);fill-opacity:1;" d="M 10.960938 4.832031 C 10.957031 4.8125 10.953125 4.789062 10.949219 4.769531 C 10.949219 4.753906 10.945312 4.742188 10.945312 4.726562 C 10.824219 3.851562 10.492188 3.027344 9.980469 2.3125 C 9.972656 2.300781 9.964844 2.289062 9.957031 2.28125 C 9.945312 2.261719 9.929688 2.242188 9.914062 2.21875 C 9.890625 2.183594 9.863281 2.148438 9.835938 2.113281 L 9.644531 1.871094 L 9.640625 1.882812 C 9.5625 1.789062 9.476562 1.699219 9.386719 1.613281 C 8.882812 1.109375 8.300781 0.714844 7.664062 0.441406 L 7.667969 0.4375 L 7.507812 0.378906 C 7.0625 0.203125 6.597656 0.0898438 6.113281 0.0351562 C 6.105469 0.0351562 6.097656 0.0351562 6.09375 0.03125 C 6.0625 0.03125 6.03125 0.0273438 6 0.0234375 C 5.984375 0.0234375 5.972656 0.0195312 5.960938 0.0195312 C 5.933594 0.0195312 5.90625 0.015625 5.878906 0.015625 C 5.859375 0.0117188 5.84375 0.0117188 5.824219 0.0117188 C 5.800781 0.0078125 5.777344 0.0078125 5.753906 0.0078125 C 5.730469 0.0078125 5.710938 0.00390625 5.6875 0.00390625 C 5.667969 0.00390625 5.648438 0.00390625 5.628906 0.00390625 C 5.589844 0 5.550781 0 5.515625 0 C 5.507812 0 5.503906 0 5.5 0 C 5.492188 0 5.488281 0 5.480469 0 C 5.445312 0 5.410156 0 5.371094 0.00390625 C 5.351562 0.00390625 5.332031 0.00390625 5.3125 0.00390625 C 5.289062 0.00390625 5.269531 0.0078125 5.246094 0.0078125 C 5.222656 0.0078125 5.199219 0.0078125 5.175781 0.0117188 C 5.15625 0.0117188 5.140625 0.0117188 5.121094 0.015625 C 5.09375 0.015625 5.066406 0.0195312 5.039062 0.0195312 C 5.027344 0.0195312 5.015625 0.0234375 5 0.0234375 C 4.96875 0.0273438 4.9375 0.03125 4.90625 0.03125 C 4.902344 0.0351562 4.894531 0.0351562 4.886719 0.0351562 C 4.40625 0.0898438 3.9375 0.203125 3.492188 0.378906 L 3.332031 0.4375 L 3.335938 0.441406 C 2.699219 0.714844 2.117188 1.109375 1.613281 1.613281 C 1.523438 1.699219 1.4375 1.789062 1.359375 1.882812 L 1.355469 1.871094 L 1.164062 2.113281 C 1.136719 2.148438 1.113281 2.183594 1.085938 2.21875 C 1.070312 2.242188 1.054688 2.261719 1.039062 2.285156 C 1.03125 2.292969 1.023438 2.300781 1.019531 2.3125 C 0.507812 3.027344 0.175781 3.851562 0.0546875 4.726562 C 0.0546875 4.742188 0.0507812 4.753906 0.0507812 4.765625 C 0.046875 4.789062 0.0429688 4.8125 0.0390625 4.832031 C 0.0078125 5.117188 -0.0078125 5.40625 0.00390625 5.691406 L 0.015625 6 L 0.0234375 5.992188 C 0.0976562 6.824219 0.355469 7.617188 0.777344 8.320312 L 0.769531 8.320312 L 0.902344 8.519531 C 0.960938 8.605469 1.019531 8.691406 1.082031 8.777344 C 1.320312 9.097656 1.59375 9.394531 1.898438 9.65625 C 2.535156 10.210938 3.277344 10.601562 4.082031 10.816406 L 4.28125 10.871094 L 4.277344 10.863281 C 4.671875 10.953125 5.082031 11 5.5 11 C 5.917969 11 6.328125 10.953125 6.722656 10.863281 L 6.722656 10.871094 L 6.917969 10.816406 C 7.722656 10.601562 8.464844 10.207031 9.101562 9.65625 C 9.40625 9.394531 9.675781 9.101562 9.914062 8.78125 C 9.976562 8.695312 10.039062 8.605469 10.097656 8.515625 L 10.230469 8.320312 L 10.222656 8.320312 C 10.644531 7.617188 10.902344 6.824219 10.976562 5.992188 L 10.984375 6 L 10.996094 5.691406 C 11.007812 5.40625 10.992188 5.117188 10.960938 4.832031 Z M 9.765625 2.570312 C 10.042969 2.980469 10.265625 3.425781 10.417969 3.902344 C 10.511719 4.191406 10.582031 4.484375 10.621094 4.78125 C 10.625 4.800781 10.628906 4.820312 10.632812 4.84375 C 10.632812 4.851562 10.632812 4.859375 10.632812 4.871094 C 10.652344 5.035156 10.667969 5.199219 10.671875 5.367188 L 9.199219 4.300781 L 9.761719 2.566406 C 9.761719 2.570312 9.765625 2.570312 9.765625 2.570312 Z M 9.15625 1.84375 C 9.285156 1.972656 9.410156 2.109375 9.523438 2.25 L 8.878906 4.230469 L 7.355469 4.691406 L 5.664062 3.464844 L 5.664062 1.898438 L 7.351562 0.667969 C 8.023438 0.925781 8.636719 1.320312 9.15625 1.84375 Z M 4.921875 0.359375 C 4.929688 0.359375 4.941406 0.359375 4.949219 0.355469 C 4.972656 0.355469 4.996094 0.351562 5.019531 0.351562 C 5.035156 0.347656 5.050781 0.347656 5.066406 0.347656 C 5.089844 0.34375 5.109375 0.34375 5.132812 0.339844 C 5.164062 0.339844 5.195312 0.335938 5.226562 0.335938 C 5.242188 0.335938 5.257812 0.332031 5.273438 0.332031 C 5.296875 0.332031 5.320312 0.332031 5.34375 0.332031 C 5.359375 0.328125 5.375 0.328125 5.386719 0.328125 C 5.421875 0.328125 5.457031 0.328125 5.492188 0.328125 C 5.496094 0.328125 5.496094 0.328125 5.5 0.328125 C 5.503906 0.328125 5.503906 0.328125 5.507812 0.328125 C 5.542969 0.328125 5.578125 0.328125 5.613281 0.328125 C 5.625 0.328125 5.640625 0.328125 5.652344 0.332031 C 5.679688 0.332031 5.703125 0.332031 5.726562 0.332031 C 5.742188 0.332031 5.757812 0.335938 5.773438 0.335938 C 5.804688 0.335938 5.835938 0.339844 5.867188 0.339844 C 5.890625 0.34375 5.910156 0.34375 5.933594 0.347656 C 5.949219 0.347656 5.964844 0.347656 5.980469 0.351562 C 6.003906 0.351562 6.027344 0.355469 6.050781 0.355469 C 6.058594 0.359375 6.070312 0.359375 6.078125 0.359375 C 6.382812 0.394531 6.679688 0.453125 6.972656 0.539062 L 5.5 1.613281 L 4.027344 0.539062 C 4.320312 0.453125 4.621094 0.394531 4.921875 0.359375 Z M 1.84375 1.84375 C 2.363281 1.320312 2.980469 0.925781 3.648438 0.667969 L 5.335938 1.898438 L 5.335938 3.464844 L 3.644531 4.691406 L 2.121094 4.230469 L 1.476562 2.25 C 1.589844 2.109375 1.714844 1.972656 1.84375 1.84375 Z M 0.367188 4.871094 C 0.367188 4.859375 0.367188 4.851562 0.371094 4.839844 C 0.371094 4.820312 0.375 4.800781 0.378906 4.78125 C 0.417969 4.484375 0.488281 4.191406 0.582031 3.902344 C 0.734375 3.425781 0.957031 2.976562 1.238281 2.570312 C 1.238281 2.570312 1.238281 2.566406 1.238281 2.566406 L 1.800781 4.296875 L 0.328125 5.367188 C 0.332031 5.199219 0.347656 5.035156 0.367188 4.871094 Z M 0.335938 5.765625 L 2.023438 4.539062 L 3.542969 5.003906 L 4.191406 6.992188 L 3.25 8.320312 L 1.164062 8.320312 C 0.667969 7.5625 0.382812 6.6875 0.335938 5.765625 Z M 2.460938 9.683594 C 2.363281 9.613281 2.265625 9.539062 2.175781 9.460938 C 2.167969 9.457031 2.160156 9.449219 2.15625 9.445312 C 2.140625 9.433594 2.125 9.417969 2.109375 9.40625 C 2.019531 9.328125 1.929688 9.242188 1.84375 9.15625 C 1.679688 8.996094 1.53125 8.824219 1.394531 8.648438 L 3.214844 8.644531 L 3.777344 10.378906 C 3.308594 10.210938 2.867188 9.980469 2.460938 9.683594 Z M 5.5 10.671875 C 5.039062 10.671875 4.589844 10.613281 4.15625 10.496094 L 3.515625 8.511719 L 4.457031 7.183594 L 5.066406 7.183594 L 5.066406 6.855469 L 4.488281 6.855469 L 3.867188 4.9375 L 5.5 3.75 L 7.132812 4.9375 L 6.511719 6.855469 L 5.5 6.855469 L 5.5 7.183594 L 6.542969 7.183594 L 7.484375 8.511719 L 6.84375 10.496094 C 6.410156 10.613281 5.960938 10.671875 5.5 10.671875 Z M 9.15625 9.15625 C 9.070312 9.242188 8.980469 9.328125 8.890625 9.40625 C 8.875 9.417969 8.859375 9.433594 8.84375 9.445312 C 8.839844 9.449219 8.832031 9.457031 8.828125 9.460938 C 8.734375 9.539062 8.640625 9.613281 8.539062 9.683594 C 8.132812 9.980469 7.691406 10.210938 7.222656 10.378906 L 7.785156 8.644531 L 9.605469 8.648438 C 9.46875 8.824219 9.320312 8.996094 9.15625 9.15625 Z M 9.835938 8.320312 L 7.75 8.320312 L 6.808594 6.992188 L 7.457031 5.003906 L 8.976562 4.539062 L 10.664062 5.765625 C 10.617188 6.6875 10.332031 7.5625 9.835938 8.320312 Z M 9.835938 8.320312 "/>
</g>
</svg>
